<svg width="125" height="126" viewBox="0 0 125 126" fill="none" xmlns="http://www.w3.org/2000/svg">
<path d="M62.5 0.134766C50.1387 0.134765 38.0549 3.80033 27.7769 10.6679C17.4988 17.5355 9.48804 27.2966 4.75756 38.717C0.0270823 50.1375 -1.21063 62.7041 1.20095 74.8279C3.61251 86.9516 9.56507 98.0881 18.3058 106.829C27.0467 115.57 38.183 121.522 50.3068 123.934C62.4307 126.345 74.9973 125.108 86.4176 120.377C97.8381 115.647 107.599 107.636 114.467 97.3579C121.334 87.0799 125 74.996 125 62.6347H93.75C93.75 68.8155 91.9172 74.8572 88.4834 79.9963C85.0496 85.1354 80.169 89.1407 74.4589 91.5059C68.7487 93.8712 62.4654 94.49 56.4035 93.2843C50.3415 92.0784 44.7733 89.1023 40.4029 84.7318C36.0325 80.3614 33.0563 74.7933 31.8505 68.7313C30.6447 62.6694 31.2635 56.3861 33.6287 50.6759C35.994 44.9658 39.9993 40.085 45.1384 36.6514C50.2776 33.2176 56.3193 31.3848 62.5 31.3848V0.134766Z" fill="white"/>
<path d="M62.5 0.134766C54.2924 0.134766 46.1651 1.75138 38.5822 4.8923C30.9994 8.0332 24.1095 12.6369 18.3058 18.4406C12.5022 24.2442 7.89847 31.134 4.75756 38.717C1.61664 46.2997 -1.23931e-06 54.4271 0 62.6347H31.25C31.25 58.531 32.0584 54.4673 33.6287 50.6759C35.1992 46.8844 37.5011 43.4395 40.4029 40.5377C43.3047 37.6358 46.7496 35.3339 50.5411 33.7634C54.3326 32.1931 58.3961 31.3848 62.5 31.3848V0.134766Z" fill="#5CE1E6"/>
<path d="M62.5 82.166C73.2868 82.166 82.0313 73.4216 82.0313 62.6347C82.0313 51.8479 73.2868 43.1035 62.5 43.1035C51.7132 43.1035 42.9687 51.8479 42.9687 62.6347C42.9687 73.4216 51.7132 82.166 62.5 82.166Z" fill="#5CE1E6"/>
<path d="M82.0313 62.6347C82.0313 60.07 81.5261 57.5301 80.5445 55.1605C79.563 52.7908 78.1244 50.6377 76.3106 48.8241C74.497 47.0105 72.3439 45.5718 69.9743 44.5903C67.6046 43.6088 65.0649 43.1035 62.5 43.1035C59.935 43.1035 57.3954 43.6088 55.0257 44.5903C52.656 45.5718 50.503 47.0105 48.6894 48.8241C46.8756 50.6377 45.437 52.7908 44.4555 55.1605C43.474 57.5301 42.9687 60.07 42.9687 62.6347H82.0313Z" fill="white"/>
</svg>
